# AST/ASF file generated using VICON BodyLanguage
# -----------------------------------------------
:version 1.10
:name VICON
:units
  mass 1.0
  length 0.45
  angle deg
:documentation
   .ast/.asf automatically generated from VICON data using
   VICON BodyBuilder and BodyLanguage model FoxedUp or BRILLIANT.MOD
:root
   order TX TY TZ RX RY RZ
   axis XYZ
   position 0 0 0  
   orientation 0 0 0 
:bonedata
  begin
     id 1 
     name lhipjoint
     direction 0.653368 -0.678499 0.335782 
     length 2.51848 
     axis 0 0 0  XYZ
  end
  begin
     id 2 
     name lfemur
     direction 0.34202 -0.939693 0  
     length 6.57749  
     axis 0 0 20  XYZ
    dof rx ry rz
    limits (-160.0 20.0)
           (-70.0 70.0)
           (-60.0 70.0)
  end
  begin
     id 3 
     name ltibia
     direction 0.34202 -0.939693 0   
     length 7.94618   
     axis 0 0 20   XYZ
    dof rx
    limits (-10.0 170.0)
  end
  begin
     id 4 
     name lfoot
     direction 0.0811271 -0.222895 0.971461   
     length 2.31339   
     axis -90 7.62852e-016 20   XYZ
    dof rx rz
    limits (-45.0 90.0)
           (-70.0 20.0)
  end
  begin
     id 5 
     name ltoes
     direction 1.53568e-011 -4.21885e-011 1   
     length 1.15935   
     axis -90 7.62852e-016 20   XYZ
    dof rx
    limits (-90.0 20.0)
  end
  begin
     id 6 
     name rhipjoint
     direction -0.640058 -0.688614 0.340788   
     length 2.48149  
     axis 0 0 0  XYZ 
  end
  begin
     id 7 
     name rfemur
     direction -0.34202 -0.939693 0   
     length 6.57875   
     axis 0 0 -20   XYZ
    dof rx ry rz
    limits (-160.0 20.0)
           (-70.0 70.0)
           (-70.0 60.0)
  end
  begin
     id 8 
     name rtibia
     direction -0.34202 -0.939693 0   
     length 7.977   
     axis 0 0 -20   XYZ
    dof rx
    limits (-10.0 170.0)
 end
 begin
     id 9 
     name rfoot
     direction -0.0979793 -0.269196 0.958089   
     length 2.19857  
     axis -90 -7.62852e-016 -20   XYZ
    dof rx rz
    limits (-45.0 90.0)
           (-20.0 70.0)
  end
  begin
     id 10 
     name rtoes
     direction -1.53556e-011 -4.21868e-011 1   
     length 1.09838   
     axis -90 -7.62852e-016 -20   XYZ
    dof rx
    limits (-90.0 20.0)
  end
  begin
     id 11 
     name lowerback
     direction 0.0149039 0.998517 -0.0523597   
     length 2.10809   
     axis 0 0 0   XYZ
    dof rx ry rz
    limits (-20.0 45.0)
           (-30.0 30.0)
           (-30.0 30.0)
  end
  begin
     id 12 
     name upperback
     direction -0.00882659 0.999418 -0.0329624   
     length 2.1102   
     axis 0 0 0   XYZ
    dof rx ry rz
    limits (-20.0 45.0)
           (-30.0 30.0)
           (-30.0 30.0)
  end
  begin
     id 13 
     name thorax
     direction -0.0165585 0.999826 -0.0085833   
     length 2.11039   
     axis 0 0 0   XYZ
    dof rx ry rz
    limits (-20.0 45.0)
           (-30.0 30.0)
           (-30.0 30.0)
  end
  begin
     id 14 
     name lowerneck
     direction -0.0130877 0.999911 0.00260353   
     length 1.73253   
     axis 0 0 0   XYZ
    dof rx ry rz
    limits (-20.0 45.0)
           (-30.0 30.0)
           (-30.0 30.0)
  end
  begin
     id 15 
     name upperneck
     direction -0.0348454 0.928205 -0.370435   
     length 1.66692   
     axis 0 0 0   XYZ
    dof rx ry rz
    limits (-20.0 45.0)
           (-30.0 30.0)
           (-30.0 30.0)
  end
  begin
     id 16
     name head
     direction -0.00807754 0.992494 -0.122026  
     length 1.72765  
     axis 0 0 0   XYZ
    dof rx ry rz
    limits (-20.0 45.0)
           (-30.0 30.0)
           (-30.0 30.0)
  end
  begin
     id 17 
     name lclavicle
     direction 0.987582 0.144023 0.0627671  
     length 3.49235  
     axis 0 0 0   XYZ
    dof ry rz
    limits (-20.0 10.0)
           (0.0 20.0)
  end
  begin
     id 18 
     name lhumerus
     direction 1 -4.48958e-011 -1.45183e-018   
     length 5.41917   
     axis 180 -30 -90   XYZ
    dof rx ry rz
    limits (-60.0 90.0)
           (-90.0 90.0)
           (-90.0 90.0)
  end
  begin
     id 19
     name lradius
     direction 1 -4.48999e-011 5.75106e-027   
     length 2.44373   
     axis 180 -30 -90   XYZ
    dof rx
    limits (-10.0 170.0)
  end
  begin
     id 20
     name lwrist
     direction 1 -4.48987e-011 1.53461e-026   
     length 1.22186   
     axis -1.09697e-014 90 90   XYZ
    dof ry
    limits (-180.0 0.0)
 end
  begin
     id 21 
     name lhand
     direction 1 -4.48881e-011 3.06923e-026   
     length 0.727502   
     axis -1.95843e-014 90 90   XYZ
    dof rx rz
    limits (-90.0 90.0)
           (-45.0 45.0)
  end
  begin
     id 22 
     name lfingers
     direction 1 -4.48907e-011 6.13845e-026   
     length 0.586531   
     axis -3.91686e-014 90 90   XYZ
    dof rx
    limits (0.0 90.0)
  end
  begin
     id 23
     name lthumb
     direction 0.707107 -6.3487e-011 0.707107   
     length 0.842145   
     axis -90 45 2.85299e-015   XYZ
    dof rx rz
    limits (-45.0 45.0)
           (-45.0 45.0)
  end
  begin
     id 24 
     name rclavicle
     direction -0.980998 0.169556 0.0943023   
     length 3.29272  
     axis 0 0 0   XYZ 
    dof ry rz
    limits (-10.0 20.0)
           (-20.0 0.0)
  end
  begin
     id 25 
     name rhumerus
     direction -1 -1.83355e-005 2.45537e-005  
     length 5.58976   
     axis 180 30 90   XYZ
    dof rx ry rz
    limits (-90.0 60.0)
           (-90.0 90.0)
           (-90.0 90.0)
  end
  begin
     id 26 
     name rradius
     direction -1 -4.48967e-011 5.97228e-027   
     length 2.4806   
     axis 180 30 90   XYZ
    dof rx
    limits (-10.0 170.0)
  end
  begin
     id 27 
     name rwrist
     direction -1 -4.48963e-011 1.53461e-026   
     length 1.2403   
     axis -1.09697e-014 -90 -90   XYZ
    dof ry
    limits (-180.0 0.0)
  end
  begin
     id 28
     name rhand
     direction -1 -4.48881e-011 3.06923e-026   
     length 0.816009   
     axis -1.95843e-014 -90 -90   XYZ
    dof rx rz
    limits (-90.0 90.0)
           (-45.0 45.0)
  end
  begin
     id 29
     name rfingers
     direction -1 -4.49018e-011 6.13845e-026   
     length 0.657887   
     axis -3.91686e-014 -90 -90   XYZ
    dof rx
    limits (0.0 90.0)
  end
  begin
     id 30
     name rthumb
     direction -0.707107 -6.34872e-011 0.707107   
     length 0.944599   
     axis -90 -45 -2.85299e-015   XYZ
    dof rx rz
    limits (-45.0 45.0)
           (-45.0 45.0)
  end
:hierarchy
  begin
    root lhipjoint rhipjoint lowerback
    lhipjoint lfemur
    lfemur ltibia
    ltibia lfoot
    lfoot ltoes
    rhipjoint rfemur
    rfemur rtibia
    rtibia rfoot
    rfoot rtoes
    lowerback upperback
    upperback thorax
    thorax lowerneck lclavicle rclavicle
    lowerneck upperneck
    upperneck head
    lclavicle lhumerus
    lhumerus lradius
    lradius lwrist
    lwrist lhand lthumb
    lhand lfingers
    rclavicle rhumerus
    rhumerus rradius
    rradius rwrist
    rwrist rhand rthumb
    rhand rfingers
  end

#!OML:ASF F:\VICON\USERDATA\INSTALL\rory3\rory3.ASF
:FULLY-SPECIFIED
:DEGREES
98
root 0.753806 16.4791 36.561 -155.307 -2.57612 -181.715
lowerback -19.2293 -0.253304 -4.95786
upperback -7.48258 -0.765532 0.158418
thorax 2.69998 -0.873658 2.7947
lowerneck -12.3652 0.96264 -2.58774
upperneck 35.902 -1.51419 -0.603708
head 14.4009 -2.41778 -0.366388
rclavicle 9.85816e-015 7.42492e-015
rhumerus -45.769 21.1457 -93.1452
rradius 21.7317
rwrist -12.5947
rhand 25.0622 4.79652
rfingers 7.12502
rthumb 49.2183 -16.8272
lclavicle 9.85816e-015 7.42492e-015
lhumerus -45.2558 -3.13803 78.8358
lradius 23.318
lwrist -5.00964
lhand 25.9904 21.6168
lfingers 7.12502
lthumb 50.0689 42.8033
rfemur -35.429 -23.1913 32.2479
rtibia 66.7091
rfoot 18.7524 -31.8888
rtoes 28.6274
lfemur -46.0659 -1.99262 -32.589
ltibia 46.0548
lfoot -36.8746 21.568
ltoes 8.53067
99
root 0.75881 16.4768 36.5671 -155.326 -2.78955 -181.797
lowerback -19.0867 -0.321779 -5.0436
upperback -7.52193 -0.848815 0.158627
thorax 2.59076 -0.910147 2.82826
lowerneck -12.2553 1.00474 -2.45554
upperneck 36.016 -1.52911 -0.632401
head 14.4278 -2.42617 -0.408298
rclavicle -1.61354e-014 1.25824e-014
rhumerus -45.6882 21.1399 -93.0855
rradius 21.6308
rwrist -12.547
rhand 24.7158 5.52767
rfingers 7.12502
rthumb 48.9001 -16.254
lclavicle -1.61354e-014 1.25824e-014
lhumerus -44.9983 -2.94495 78.5806
lradius 23.0833
lwrist -5.15785
lhand 25.9565 21.3018
lfingers 7.12502
lthumb 50.0379 42.5046
rfemur -35.6783 -23.4217 32.3376
rtibia 66.8192
rfoot 20.6919 -31.6008
rtoes 25.8341
lfemur -46.0485 -2.05407 -32.6159
ltibia 46.0526
lfoot -36.7987 21.426
ltoes 8.60038
100
root 0.765884 16.4849 36.5737 -155.243 -2.94697 -181.794
lowerback -19.0682 -0.345267 -5.07415
upperback -7.553 -0.880544 0.171168
thorax 2.55043 -0.925413 2.85292
lowerneck -12.2853 1.03366 -2.33589
upperneck 36.1347 -1.55153 -0.610647
head 14.4895 -2.42456 -0.428821
rclavicle -1.01792e-014 8.02671e-015
rhumerus -45.6776 21.2512 -93.1061
rradius 21.6903
rwrist -12.683
rhand 25.3248 3.96286
rfingers 7.12502
rthumb 49.4592 -17.5392
lclavicle -1.01792e-014 8.02671e-015
lhumerus -44.8225 -2.95114 78.4742
lradius 23.0187
lwrist -5.10532
lhand 25.7143 20.9
lfingers 7.12502
lthumb 49.8161 42.2187
rfemur -35.8641 -23.1943 32.2524
rtibia 67.164
rfoot 11.6622 -35.9302
rtoes 41.125
lfemur -46.1343 -2.09116 -32.5517
ltibia 46.0236
lfoot -36.708 21.2748
ltoes 8.63729
101
root 0.775222 16.4859 36.5861 -155.08 -3.26035 -181.836
lowerback -19.0746 -0.449274 -5.1611
upperback -7.57266 -1.00463 0.208599
thorax 2.54344 -0.985013 2.91629
lowerneck -12.3981 1.03847 -2.31672
upperneck 36.2248 -1.59615 -0.490621
head 14.559 -2.42561 -0.393607
rclavicle 1.44696e-015 5.11249e-015
rhumerus -45.6009 21.4217 -93.0945
rradius 21.8241
rwrist -12.7967
rhand 25.6486 3.09299
rfingers 7.12502
rthumb 49.7559 -18.257
lclavicle 1.44696e-015 5.11249e-015
lhumerus -44.6588 -2.93627 78.3789
lradius 23.103
lwrist -5.02755
lhand 25.647 21.079
lfingers 7.12502
lthumb 49.7545 42.4296
rfemur -36.2129 -23.1963 32.3939
rtibia 67.3455
rfoot 8.69834 -36.9092
rtoes 44.6991
lfemur -46.3117 -2.15405 -32.5286
ltibia 45.9373
lfoot -36.3532 21.218
ltoes 8.07326
102
root 0.787023 16.4871 36.6004 -154.897 -3.75265 -182.035
lowerback -19.015 -0.670602 -5.3862
upperback -7.62986 -1.26792 0.25137
thorax 2.47491 -1.11088 3.03616
lowerneck -12.4564 1.05055 -2.37596
upperneck 36.3158 -1.61598 -0.386884
head 14.6168 -2.43363 -0.34752
rclavicle 3.80612e-015 -1.41013e-015
rhumerus -45.5055 21.5387 -93.013
rradius 21.8941
rwrist -12.7282
rhand 25.9851 2.66015
rfingers 7.12502
rthumb 50.064 -18.5289
lclavicle 3.80612e-015 -1.41013e-015
lhumerus -44.4608 -2.69552 78.1881
lradius 23.1024
lwrist -5.12805
lhand 25.6982 21.4783
lfingers 7.12502
lthumb 49.8014 42.8047
rfemur -36.6541 -23.4175 32.5143
rtibia 67.5011
rfoot 8.65956 -37.074
rtoes 45.1608
lfemur -46.4931 -2.16878 -32.6807
ltibia 45.8623
lfoot -35.8204 21.0899
ltoes 6.67986
103
root 0.779345 16.4914 36.5787 -155.604 -3.65349 -182.068
lowerback -18.6916 -0.623656 -5.30016
upperback -7.34718 -1.15373 0.203779
thorax 2.60321 -1.03138 2.9621
lowerneck -12.5384 1.07659 -2.4055
upperneck 36.4905 -1.63368 -0.308803
head 14.7195 -2.4468 -0.320403
rclavicle -1.66657e-016 2.14936e-015
rhumerus -45.4529 21.6625 -93.0129
rradius 21.9252
rwrist -12.8253
rhand 26.4264 2.00678
rfingers 7.12502
rthumb 50.4675 -18.967
lclavicle -1.66657e-016 2.14936e-015
lhumerus -44.3383 -2.71286 78.1445
lradius 23.2299
lwrist -5.03348
lhand 25.6378 21.8686
lfingers 7.12502
lthumb 49.746 43.2237
rfemur -35.6588 -23.5115 31.8714
rtibia 67.4507
rfoot 7.91664 -37.1554
rtoes 46.61
lfemur -45.5643 -1.98609 -32.775
ltibia 45.8016
lfoot -36.0431 21.1272
ltoes 5.45105
104
root 0.790002 16.492 36.6074 -154.946 -3.6281 -182.098
lowerback -18.9093 -0.596389 -5.43043
upperback -7.58869 -1.15254 0.194009
thorax 2.45347 -1.04846 3.0256
lowerneck -12.6385 1.10497 -2.38246
upperneck 36.6561 -1.65101 -0.241085
head 14.8222 -2.45118 -0.306142
rclavicle -2.0183e-014 1.13432e-014
rhumerus -45.5206 21.8994 -93.1589
rradius 21.9937
rwrist -13.1105
rhand 25.8813 1.68412
rfingers 7.12502
rthumb 49.969 -19.5549
lclavicle -2.0183e-014 1.13432e-014
lhumerus -44.263 -2.97563 78.2233
lradius 23.4041
lwrist -4.73842
lhand 25.4269 22.0314
lfingers 7.12502
lthumb 49.5528 43.4858
rfemur -36.7457 -23.0804 32.1246
rtibia 67.5872
rfoot 7.61109 -37.6737
rtoes 47.6301
lfemur -46.4372 -1.91391 -32.8704
ltibia 45.7896
lfoot -35.6135 21.2043
ltoes 4.26163
105
root 0.790943 16.4915 36.6057 -155.139 -3.87407 -182.071
lowerback -18.7143 -0.630806 -5.33418
upperback -7.53768 -1.20096 0.199059
thorax 2.41319 -1.06348 2.96891
lowerneck -12.6307 1.11208 -2.36201
upperneck 36.747 -1.69641 -0.179234
head 14.865 -2.4674 -0.294953
rclavicle -3.7325e-015 6.34558e-015
rhumerus -45.6206 21.9893 -93.2176
rradius 22.0904
rwrist -13.1755
rhand 26.0199 1.2332
rfingers 7.12502
rthumb 50.0958 -19.9391
lclavicle -3.7325e-015 6.34558e-015
lhumerus -44.2707 -3.21034 78.2673
lradius 23.5782
lwrist -4.52016
lhand 25.317 21.8626
lfingers 7.12502
lthumb 49.452 43.3684
rfemur -36.4583 -23.2753 32.0919
rtibia 67.5156
rfoot 6.60965 -36.4333
rtoes 48.9152
lfemur -46.188 -1.96626 -32.7758
ltibia 45.761
lfoot -35.5691 21.1285
ltoes 3.83024
106
root 0.794701 16.4924 36.6082 -155.21 -4.05624 -182.048
lowerback -18.6279 -0.655839 -5.27998
upperback -7.52315 -1.23842 0.201775
thorax 2.38797 -1.07838 2.93466
lowerneck -12.6408 1.11892 -2.3043
upperneck 36.8804 -1.74458 -0.172184
head 14.9319 -2.49071 -0.315651
rclavicle -6.99366e-015 2.61604e-015
rhumerus -45.6527 22.1326 -93.3246
rradius 22.1223
rwrist -13.3534
rhand 26.492 0.736497
rfingers 7.12502
rthumb 50.5274 -20.2049
lclavicle -6.99366e-015 2.61604e-015
lhumerus -44.2805 -3.39095 78.2754
lradius 23.8105
lwrist -4.32251
lhand 25.2909 21.5318
lfingers 7.12502
lthumb 49.4281 43.0498
rfemur -36.3535 -23.3652 32.0957
rtibia 67.4895
rfoot 4.58371 -35.2806
rtoes 51.4504
lfemur -46.1072 -2.00044 -32.6983
ltibia 45.7507
lfoot -35.5542 21.048
ltoes 3.66061
